<svg xmlns="http://www.w3.org/2000/svg" xmlns:xlink="http://www.w3.org/1999/xlink" height="800px" width="800px" version="1.1" id="Layer_1" viewBox="0 0 511.874 511.874" xml:space="preserve" fill="#000000">

<g id="SVGRepo_bgCarrier" stroke-width="0"/>

<g id="SVGRepo_tracerCarrier" stroke-linecap="round" stroke-linejoin="round"/>

<g id="SVGRepo_iconCarrier"> <path style="fill:#F42C2C;" d="M203.917,308.902c1.766,0,3.531,0,5.297,0h34.428c7.062,0,15.007,0.883,21.186,3.531 c26.483-10.593,44.138-36.193,44.138-65.324c0-38.841-31.779-70.621-70.621-70.621s-70.621,31.779-70.621,70.621 C167.724,273.592,182.731,296.544,203.917,308.902"/> <path style="fill:#FDC794;" d="M505.821,337.151c7.062-5.297,7.945-15.89,2.648-22.952c-11.476-15.007-20.303-19.421-58.262,0.883 l-76.8,46.786c-23.835,12.359-84.745,8.828-111.228,8.828c0,0,62.676,4.414,37.959-32.662 c-12.359-18.538-33.545-29.131-56.497-29.131h-34.428l0,0c-20.303,0-39.724-6.179-55.614-18.538 C115.641,262.116,44.138,317.73,44.138,317.73v158.897h123.586l0,0c17.655,0,35.31-1.766,52.966-4.414l114.759-17.655 c3.531,0,7.945-0.883,11.476-0.883l0,0c9.71-0.883,17.655-6.179,24.717-12.359L505.821,337.151z"/> <polygon style="fill:#2872C9;" points="0,503.109 44.138,503.109 44.138,291.247 0,291.247 "/> <path style="fill:#F9A671;" d="M141.241,406.006c-5.297,0-8.828-3.531-8.828-8.828c0-22.069,16.772-35.31,44.138-35.31h85.628 c5.297,0,8.828,3.531,8.828,8.828s-3.531,8.828-8.828,8.828h-85.628c-26.483,0-26.483,13.241-26.483,17.655 C150.069,402.475,146.538,406.006,141.241,406.006z"/> <path style="fill:#7667AC;" d="M467.862,79.385c0,38.841-31.779,70.621-70.621,70.621s-70.621-31.779-70.621-70.621 S358.4,8.765,397.241,8.765S467.862,40.544,467.862,79.385"/> <g> <path style="fill:#F3FBFF;" d="M238.345,220.627c-15.007,0-26.483,11.476-26.483,26.483s11.476,26.483,26.483,26.483 c15.007,0,26.483-11.476,26.483-26.483S253.352,220.627,238.345,220.627 M238.345,291.247c-24.717,0-44.138-19.421-44.138-44.138 s19.421-44.138,44.138-44.138s44.138,19.421,44.138,44.138S263.062,291.247,238.345,291.247"/> <path style="fill:#F3FBFF;" d="M308.966,247.109c0-2.648,0-6.179-0.883-8.828h-34.428c-5.297,0-8.828,3.531-8.828,8.828 s3.531,8.828,8.828,8.828h34.428C308.966,253.289,308.966,249.758,308.966,247.109"/> <path style="fill:#F3FBFF;" d="M293.959,203.854c-3.531-4.414-7.945-8.828-12.359-12.359l-24.717,24.717 c-3.531,3.531-3.531,8.828,0,12.359c1.766,1.766,4.414,2.648,6.179,2.648c2.648,0,4.414-0.883,6.179-2.648L293.959,203.854z"/> <path style="fill:#F3FBFF;" d="M238.345,176.489c-2.648,0-6.179,0-8.828,0.883v34.428c0,5.297,3.531,8.828,8.828,8.828 s8.828-3.531,8.828-8.828v-34.428C244.524,176.489,240.993,176.489,238.345,176.489"/> <path style="fill:#F3FBFF;" d="M182.731,203.854l24.717,24.717c1.766,1.766,4.414,2.648,6.179,2.648 c2.648,0,4.414-0.883,6.179-2.648c3.531-3.531,3.531-8.828,0-12.359l-24.717-24.717 C190.676,195.027,186.262,199.44,182.731,203.854"/> <path style="fill:#F3FBFF;" d="M211.862,247.109c0-5.297-3.531-8.828-8.828-8.828h-34.428c0,2.648-0.883,6.179-0.883,8.828 s0,6.179,0.883,8.828h34.428C208.331,255.937,211.862,252.406,211.862,247.109"/> <path style="fill:#F3FBFF;" d="M195.09,302.723l24.717-24.717c3.531-3.531,3.531-8.828,0-12.359c-3.531-3.531-8.828-3.531-12.359,0 l-24.717,24.717C186.262,294.778,190.676,299.192,195.09,302.723"/> <path style="fill:#F3FBFF;" d="M293.959,290.365l-24.717-24.717c-3.531-3.531-8.828-3.531-12.359,0 c-3.531,3.531-3.531,8.828,0,12.359l24.717,24.717C286.014,299.192,290.428,294.778,293.959,290.365"/> <path style="fill:#F3FBFF;" d="M247.172,308.902L247.172,308.902V282.42c0-5.297-3.531-8.828-8.828-8.828s-8.828,3.531-8.828,8.828 v26.483h14.124C244.524,308.902,246.29,308.902,247.172,308.902"/> </g> <g> <path style="fill:#F0CE17;" d="M397.241,52.902c-15.007,0-26.483,11.476-26.483,26.483s11.476,26.483,26.483,26.483 c15.007,0,26.483-11.476,26.483-26.483S412.248,52.902,397.241,52.902 M397.241,123.523c-24.717,0-44.138-19.421-44.138-44.138 s19.421-44.138,44.138-44.138c24.717,0,44.138,19.421,44.138,44.138S421.959,123.523,397.241,123.523"/> <path style="fill:#F0CE17;" d="M467.862,79.385c0-2.648,0-6.179-0.883-8.828h-34.428c-5.297,0-8.828,3.531-8.828,8.828 c0,5.297,3.531,8.828,8.828,8.828h34.428C467.862,84.682,467.862,82.033,467.862,79.385"/> <path style="fill:#F0CE17;" d="M452.855,36.13c-3.531-4.414-7.945-8.828-12.359-12.359l-24.717,24.717 c-3.531,3.531-3.531,8.828,0,12.359c1.766,1.766,4.414,2.648,6.179,2.648c2.648,0,4.414-0.883,6.179-2.648L452.855,36.13z"/> <path style="fill:#F0CE17;" d="M397.241,8.765c-2.648,0-6.179,0-8.828,0.883v34.428c0,5.297,3.531,8.828,8.828,8.828 c5.297,0,8.828-3.531,8.828-8.828V8.765C403.421,8.765,399.89,8.765,397.241,8.765"/> <path style="fill:#F0CE17;" d="M341.628,36.13l24.717,24.717c1.766,1.766,4.414,2.648,6.179,2.648c2.648,0,4.414-0.883,6.179-2.648 c3.531-3.531,3.531-8.828,0-12.359l-24.717-24.717C349.572,27.302,345.159,30.833,341.628,36.13"/> <path style="fill:#F0CE17;" d="M370.759,79.385c0-5.297-3.531-8.828-8.828-8.828h-34.428c-0.883,2.648-0.883,5.297-0.883,8.828 c0,2.648,0,6.179,0.883,8.828h34.428C367.228,88.213,370.759,83.799,370.759,79.385"/> <path style="fill:#F0CE17;" d="M428.138,97.923c-3.531-3.531-8.828-3.531-12.359,0c-3.531,3.531-3.531,8.828,0,12.359 l24.717,24.717c4.414-3.531,8.828-7.945,12.359-12.359L428.138,97.923z"/> <path style="fill:#F0CE17;" d="M397.241,105.868c-5.297,0-8.828,3.531-8.828,8.828v35.31c2.648,0,6.179,0.883,8.828,0.883 c2.648,0,6.179,0,8.828-0.883v-35.31C406.069,109.399,402.538,105.868,397.241,105.868"/> <path style="fill:#F0CE17;" d="M366.345,97.923l-24.717,24.717c3.531,4.414,7.945,8.828,12.359,12.359l24.717-24.717 c3.531-3.531,3.531-8.828,0-12.359C375.172,94.392,369.876,94.392,366.345,97.923"/> </g> </g>

</svg>